<svg width="32" height="33" viewBox="0 0 32 33" fill="none" xmlns="http://www.w3.org/2000/svg">
<path fill-rule="evenodd" clip-rule="evenodd" d="M31.8811 11.9681C31.6041 11.1434 30.8931 10.5395 30.0381 10.4084L21.7121 9.13046L18.0921 1.37407C17.7121 0.55962 16.8961 0.0383301 16.0001 0.0383301C15.1041 0.0383301 14.2891 0.55962 13.9081 1.37407L10.2891 9.13046L1.96214 10.4084C1.10614 10.5395 0.39514 11.1434 0.12014 11.9681C-0.15586 12.7939 0.0521396 13.7044 0.65714 14.3268L6.75914 20.6164L5.34414 29.34C5.20014 30.2174 5.56914 31.1 6.29214 31.6141C6.68914 31.8948 7.15614 32.0383 7.62314 32.0383C8.00714 32.0383 8.39114 31.9413 8.74114 31.7493L16.0001 27.7152L23.2601 31.7493C23.6091 31.9413 23.9941 32.0383 24.3771 32.0383C24.8441 32.0383 25.3101 31.8948 25.7091 31.6141C26.4311 31.1 26.8001 30.2174 26.6571 29.34L25.2411 20.6164L31.3441 14.3268C31.9481 13.7044 32.1551 12.7939 31.8811 11.9681ZM23.5881 18.9937C23.0761 19.5212 22.8441 20.2623 22.9621 20.9901L24.3771 29.7147L17.1181 25.6817C16.7691 25.4876 16.3851 25.3916 16.0001 25.3916C15.6161 25.3916 15.2311 25.4876 14.8831 25.6817L7.62314 29.7147L9.03914 20.9901C9.15714 20.2623 8.92514 19.5212 8.41314 18.9937L2.31114 12.7062L10.6371 11.4252C11.3981 11.3085 12.0531 10.8182 12.3811 10.1173L16.0001 2.36194L19.6201 10.1173C19.9471 10.8182 20.6011 11.3085 21.3621 11.4252L29.6891 12.7062L23.5881 18.9937Z" fill="#666D89"/>
</svg>
