<svg width="32" height="29" viewBox="0 0 32 29" fill="none" xmlns="http://www.w3.org/2000/svg">
<path fill-rule="evenodd" clip-rule="evenodd" d="M16 24.0383C14.943 24.0383 13.913 23.9563 12.914 23.8103C12.23 24.6433 9.286 27.5143 6.161 28.0263C6.165 28.0133 6 28.0383 5.906 28.0383C5.405 28.0383 5 27.6333 5 27.1323C5 27.0053 5.027 26.8843 5.074 26.7743H5.072C5.661 25.7613 7 23.8313 7 22.0383C7 22.0093 7.008 21.9913 7.008 21.9643C2.779 19.8043 0 16.1653 0 12.0383C0 5.41133 7.163 0.0383301 16 0.0383301C24.836 0.0383301 32 5.41133 32 12.0383C32 18.6653 24.836 24.0383 16 24.0383ZM16 2.03833C8.28 2.03833 2 6.52433 2 12.0383C2 15.2453 4.212 18.2903 7.918 20.1833C8.587 20.5243 9.008 21.2133 9.008 21.9643C9.008 22.0203 9.005 22.0843 8.999 22.1483C8.979 23.1823 8.673 24.1863 8.283 25.0803C9.723 24.2243 10.94 23.0623 11.368 22.5413C11.751 22.0743 12.32 21.8093 12.914 21.8093C13.01 21.8093 13.107 21.8163 13.204 21.8313C14.143 21.9693 15.083 22.0383 16 22.0383C23.72 22.0383 30 17.5523 30 12.0383C30 6.52433 23.72 2.03833 16 2.03833ZM16 6.03833C10.673 6.03833 6 8.84233 6 12.0383C6 12.3143 5.776 12.5383 5.5 12.5383C5.224 12.5383 5 12.3143 5 12.0383C5 8.24433 10.037 5.03833 16 5.03833C16.276 5.03833 16.5 5.26233 16.5 5.53833C16.5 5.81533 16.276 6.03833 16 6.03833Z" fill="#666D89"/>
</svg>
