<svg width="22" height="33" viewBox="0 0 22 33" fill="none" xmlns="http://www.w3.org/2000/svg">
<path fill-rule="evenodd" clip-rule="evenodd" d="M19 32.1061L3 32.1081C1.343 32.1081 0 30.7651 0 29.1081V3.10812C0 1.45012 1.343 0.107117 3 0.107117H19C20.657 0.107117 22 1.44912 22 3.10712V29.1071C22 30.7641 20.657 32.1061 19 32.1061ZM20 3.10712C20 2.55512 19.552 2.10712 19 2.10712L3 2.10812C2.448 2.10812 2 2.55612 2 3.10812V5.10812L20 5.10712V3.10712ZM20 6.10712H2V26.1041L20 26.1031V6.10712ZM20 27.1031L2 27.1041V29.1081C2 29.6591 2.448 30.1081 3 30.1081L19 30.1061C19.552 30.1061 20 29.6581 20 29.1071V27.1031ZM11.5 29.1031H10.5C10.224 29.1031 10 28.8791 10 28.6031C10 28.3261 10.224 28.1031 10.5 28.1031H11.5C11.776 28.1031 12 28.3261 12 28.6031C12 28.8791 11.776 29.1031 11.5 29.1031ZM9.5 3.10712H12.5C12.776 3.10712 13 3.33012 13 3.60712C13 3.88312 12.776 4.10712 12.5 4.10712H9.5C9.224 4.10712 9 3.88312 9 3.60712C9 3.33012 9.224 3.10712 9.5 3.10712Z" fill="#666D89"/>
</svg>
