<svg width="32" height="29" viewBox="0 0 32 29" fill="none" xmlns="http://www.w3.org/2000/svg">
<path fill-rule="evenodd" clip-rule="evenodd" d="M29.1898 16.2859C29.0688 16.4051 18.1368 27.2293 18.1368 27.2293C16.9548 28.3997 15.0418 28.3997 13.8588 27.2293C13.8588 27.2293 3.87575 17.3442 2.80575 16.2859C-0.93525 12.5804 -0.93525 6.57404 2.80575 2.86951C6.43675 -0.725889 12.2378 -0.800981 15.9978 2.58216C19.7588 -0.800981 25.5598 -0.725889 29.1898 2.86951C32.9308 6.57404 32.9308 12.5804 29.1898 16.2859ZM27.7628 4.28123C24.9208 1.46579 20.3468 1.36667 17.3538 4.05896L15.9978 5.27945L14.6418 4.05896C11.6488 1.36667 7.07675 1.46579 4.23275 4.28123C1.28275 7.20181 1.28275 11.9526 4.23275 14.8732L15.2858 25.8166C15.6768 26.206 16.3178 26.206 16.7108 25.8166L27.7628 14.8732C30.7138 11.9526 30.7138 7.20181 27.7628 4.28123ZM9.24975 6.10647C7.45575 6.10647 5.99975 7.56225 5.99975 9.35544V9.35644C5.99975 9.63278 5.77575 9.85705 5.49975 9.85705C5.22275 9.85705 4.99975 9.63278 4.99975 9.35644C4.99975 7.01057 6.90075 5.10925 9.24575 5.10724C9.24775 5.10724 9.24775 5.10624 9.24975 5.10624C9.52575 5.10624 9.74975 5.33052 9.74975 5.60685C9.74975 5.88319 9.52575 6.10647 9.24975 6.10647Z" fill="#666D89"/>
</svg>
